<svg xmlns="http://www.w3.org/2000/svg" viewBox="0 0 85.039 85.039"><g transform="translate(-65.831 -834.623)"><path d="M105.831 839.662h5v75h-5z" fill-rule="evenodd"/><path d="M95.831 839.662c0 10 5.922 14.993 12.5 15 6.583-.002 12.5-5 12.5-15.011l-5 .022c0 7.99-3.112 9.99-7.5 9.99-3.713-.004-7.5-2-7.5-10zM95.831 914.651c0-10 5.922-14.992 12.5-15 6.583.002 12.5 5 12.5 15.011l-5-.022c0-7.989-3.112-9.989-7.5-9.989-3.713.003-7.5 2-7.5 10z"/><path d="M133.076 848.876l3.535 3.536-53.033 53.033-3.535-3.536z" fill-rule="evenodd"/><path d="M126.005 841.805c-7.071 7.071-6.414 14.789-1.768 19.446 4.656 4.653 12.374 5.303 19.453-1.776l-3.551-3.52c-5.649 5.65-9.263 4.863-12.366 1.76-2.624-2.628-3.89-6.717 1.767-12.374zM72.98 894.83c7.07-7.07 14.788-6.414 19.445-1.767 4.653 4.656 5.303 12.374-1.776 19.453l-3.52-3.551c5.65-5.65 4.864-9.264 1.76-12.367-2.627-2.623-6.717-3.889-12.374 1.768z"/><g><path d="M145.83 874.655v5h-75v-5z" fill-rule="evenodd"/><path d="M145.83 864.655c-10 0-14.993 5.922-15 12.5.001 6.583 5 12.5 15.01 12.5l-.022-5c-7.989 0-9.989-3.112-9.989-7.5.003-3.713 2-7.5 10-7.5zM70.84 864.655c10 0 14.993 5.922 15 12.5-.001 6.583-5 12.5-15.01 12.5l.022-5c7.989 0 9.989-3.112 9.989-7.5-.003-3.713-2-7.5-10-7.5z"/></g><g><path d="M136.615 901.9l-3.535 3.535-53.033-53.033 3.535-3.535z" fill-rule="evenodd"/><path d="M143.686 894.829c-7.07-7.071-14.788-6.414-19.445-1.768-4.653 4.656-5.303 12.374 1.776 19.453l3.52-3.551c-5.65-5.649-4.864-9.264-1.76-12.366 2.627-2.624 6.717-3.89 12.374 1.767zM90.661 841.804c7.071 7.07 6.414 14.788 1.768 19.445-4.656 4.653-12.374 5.303-19.453-1.776l3.551-3.52c5.649 5.65 9.263 4.864 12.366 1.76 2.624-2.627 3.89-6.717-1.767-12.374z"/></g><circle cx="108.351" cy="877.143" r="14.924" fill="none" stroke="#000" stroke-width="5.132"/></g></svg>