<svg xmlns="http://www.w3.org/2000/svg" viewBox="0 0 85.039 85.039"><path d="M67.245 14.253l3.535 3.536-53.033 53.033-3.535-3.536z" fill-rule="evenodd"/><path d="M60.174 7.182c-7.071 7.071-6.414 14.789-1.768 19.446 4.656 4.653 12.374 5.303 19.453-1.776l-3.551-3.52c-5.649 5.65-9.264 4.863-12.367 1.76-2.623-2.627-3.889-6.717 1.768-12.374zM7.149 60.208c7.07-7.072 14.788-6.414 19.445-1.768 4.653 4.656 5.303 12.374-1.776 19.453l-3.52-3.551c5.65-5.65 4.863-9.264 1.76-12.367-2.627-2.623-6.717-3.889-12.374 1.768z"/><g><path d="M70.784 67.277l-3.535 3.536L14.216 17.78l3.535-3.536z" fill-rule="evenodd"/><path d="M77.855 60.206c-7.07-7.071-14.788-6.414-19.445-1.768-4.653 4.656-5.303 12.375 1.776 19.453l3.52-3.55c-5.65-5.65-4.864-9.264-1.76-12.367 2.627-2.624 6.717-3.89 12.374 1.767zM24.83 7.18c7.071 7.072 6.414 14.79 1.768 19.446-4.656 4.653-12.374 5.304-19.453-1.775l3.551-3.52c5.649 5.649 9.263 4.863 12.366 1.76 2.624-2.628 3.89-6.718-1.767-12.375z"/></g></svg>