<?xml version="1.0" encoding="UTF-8" standalone="no"?>
<!-- Created with Inkscape (http://www.inkscape.org/) -->

<svg
   xmlns:dc="http://purl.org/dc/elements/1.1/"
   xmlns:cc="http://creativecommons.org/ns#"
   xmlns:rdf="http://www.w3.org/1999/02/22-rdf-syntax-ns#"
   xmlns:svg="http://www.w3.org/2000/svg"
   xmlns="http://www.w3.org/2000/svg"
   xmlns:sodipodi="http://sodipodi.sourceforge.net/DTD/sodipodi-0.dtd"
   xmlns:inkscape="http://www.inkscape.org/namespaces/inkscape"
   width="15mm"
   height="15mm"
   viewBox="0 0 53.149606 53.149606"
   id="svg4255"
   version="1.1"
   inkscape:version="0.91 r13725"
   sodipodi:docname="sword-icon.svg">
  <defs
     id="defs4257">
    <clipPath
       id="clipPath4162"
       clipPathUnits="userSpaceOnUse">
      <path
         inkscape:connector-curvature="0"
         id="path4164"
         d="m 286.2,538.783 39.6,0 0,39.377 -39.6,0 0,-39.377 z" />
    </clipPath>
  </defs>
  <sodipodi:namedview
     id="base"
     pagecolor="#ffffff"
     bordercolor="#666666"
     borderopacity="1.0"
     inkscape:pageopacity="0.0"
     inkscape:pageshadow="2"
     inkscape:zoom="11.2"
     inkscape:cx="11.404856"
     inkscape:cy="25.616016"
     inkscape:document-units="px"
     inkscape:current-layer="layer1"
     showgrid="false"
     fit-margin-top="0"
     fit-margin-left="0"
     fit-margin-right="0"
     fit-margin-bottom="0"
     inkscape:window-width="1920"
     inkscape:window-height="1017"
     inkscape:window-x="1912"
     inkscape:window-y="-8"
     inkscape:window-maximized="1" />
  <metadata
     id="metadata4260">
    <rdf:RDF>
      <cc:Work
         rdf:about="">
        <dc:format>image/svg+xml</dc:format>
        <dc:type
           rdf:resource="http://purl.org/dc/dcmitype/StillImage" />
        <dc:title></dc:title>
      </cc:Work>
    </rdf:RDF>
  </metadata>
  <g
     inkscape:label="Layer 1"
     inkscape:groupmode="layer"
     id="layer1"
     transform="translate(-500.96447,-309.53689)">
    <g
       id="g4158"
       transform="matrix(1.269809,0,0,-1.269809,138.97791,1045.264)">
      <g
         id="g4160"
         clip-path="url(#clipPath4162)">
        <g
           id="g4166"
           transform="translate(315.7417,555.1136)">
          <path
             d="m 0,0 c -1.043,0.988 -3.197,1.666 -5.686,1.666 -0.962,0 -1.873,-0.102 -2.69,-0.284 l 0,-0.012 -2.731,0 0,0.012 c -0.818,0.182 -1.728,0.284 -2.69,0.284 -2.489,0 -4.643,-0.678 -5.686,-1.666 l -0.714,2.16 7.924,3.176 0.759,10.444 c -0.432,0.342 -0.7,0.812 -0.7,1.331 0,1.042 1.076,1.888 2.405,1.888 1.328,-10e-4 2.405,-0.846 2.405,-1.888 0,-0.519 -0.267,-0.989 -0.7,-1.331 L -7.349,5.392 0.714,2.16 0,0 Z m -9.742,23.046 c -10.935,0 -19.8,-8.865 -19.8,-19.8 0,-9.923 7.301,-18.14 16.823,-19.576 l 0,15.862 5.955,0.011 0,-15.873 c 9.522,1.436 16.822,9.653 16.822,19.576 0,10.935 -8.865,19.8 -19.8,19.8"
             style="fill:#231f20;fill-opacity:1;fill-rule:nonzero;stroke:none"
             id="path4168"
             inkscape:connector-curvature="0" />
        </g>
      </g>
    </g>
  </g>
</svg>
